<svg width="66" height="66" viewBox="0 0 66 66" fill="none" xmlns="http://www.w3.org/2000/svg">
<path d="M30.6712 1.79317C30.9198 -0.597718 34.4012 -0.597728 34.6498 1.79316L35.4059 9.06485C35.6092 11.0208 38.2174 11.5397 39.1538 9.81037L42.6351 3.38155C43.7797 1.26778 46.9961 2.60004 46.3108 4.90407L44.2266 11.9116C43.6659 13.7965 45.877 15.2739 47.4039 14.0346L53.0804 9.42738C54.9468 7.91254 57.4085 10.3742 55.8937 12.2406L51.2864 17.9171C50.0471 19.444 51.5246 21.6551 53.4095 21.0945L60.417 19.0102C62.721 18.325 64.0533 21.5413 61.9395 22.6859L55.5107 26.1672C53.7814 27.1036 54.3002 29.7118 56.2562 29.9152L63.5279 30.6712C65.9188 30.9198 65.9188 34.4012 63.5279 34.6498L56.2562 35.4059C54.3002 35.6092 53.7814 38.2174 55.5107 39.1538L61.9395 42.6351C64.0533 43.7797 62.721 46.9961 60.417 46.3108L53.4095 44.2266C51.5246 43.6659 50.0471 45.877 51.2864 47.4039L55.8937 53.0804C57.4085 54.9468 54.9468 57.4085 53.0804 55.8937L47.4039 51.2864C45.877 50.0471 43.6659 51.5246 44.2266 53.4095L46.3108 60.417C46.9961 62.721 43.7797 64.0533 42.6351 61.9395L39.1538 55.5107C38.2174 53.7814 35.6092 54.3002 35.4059 56.2562L34.6498 63.5279C34.4012 65.9188 30.9198 65.9188 30.6712 63.5279L29.9152 56.2562C29.7118 54.3002 27.1036 53.7814 26.1672 55.5107L22.686 61.9395C21.5413 64.0533 18.325 62.721 19.0102 60.417L21.0945 53.4095C21.6551 51.5246 19.444 50.0471 17.9171 51.2864L12.2406 55.8937C10.3742 57.4085 7.91254 54.9468 9.42737 53.0804L14.0346 47.4039C15.2739 45.877 13.7965 43.6659 11.9116 44.2266L4.90408 46.3108C2.60005 46.9961 1.26778 43.7797 3.38154 42.6351L9.81037 39.1538C11.5396 38.2174 11.0209 35.6092 9.06485 35.4059L1.79317 34.6498C-0.597718 34.4012 -0.597728 30.9198 1.79316 30.6712L9.06485 29.9152C11.0209 29.7118 11.5397 27.1036 9.81037 26.1672L3.38155 22.686C1.26779 21.5413 2.60004 18.325 4.90407 19.0102L11.9116 21.0945C13.7965 21.6551 15.2739 19.444 14.0346 17.9171L9.42738 12.2406C7.91254 10.3742 10.3742 7.91254 12.2406 9.42737L17.9171 14.0346C19.444 15.2739 21.6551 13.7965 21.0945 11.9116L19.0102 4.90408C18.325 2.60005 21.5413 1.26778 22.6859 3.38154L26.1672 9.81037C27.1036 11.5397 29.7118 11.0209 29.9152 9.06485L30.6712 1.79317Z" fill="#B266FF"/>
</svg>
