<svg width="21" height="20" viewBox="0 0 21 20" fill="none" xmlns="http://www.w3.org/2000/svg">
<path d="M8.41906 1.16759C9.40115 -0.389196 11.5988 -0.389198 12.5809 1.16759L14.2669 3.84019C14.6001 4.36829 15.108 4.75142 15.6947 4.91717L18.664 5.75601C20.3936 6.24463 21.0728 8.4146 19.9501 9.86537L18.0228 12.356C17.642 12.8481 17.448 13.468 17.4775 14.0986L17.6266 17.2896C17.7134 19.1484 15.9355 20.4895 14.2596 19.8293L11.3824 18.696C10.8139 18.472 10.1861 18.472 9.61757 18.696L6.74045 19.8293C5.06453 20.4895 3.28655 19.1484 3.37342 17.2896L3.52255 14.0986C3.55201 13.468 3.358 12.8481 2.97717 12.356L1.04989 9.86537C-0.0727518 8.4146 0.606374 6.24463 2.33598 5.75601L5.30526 4.91717C5.89199 4.75142 6.39992 4.3683 6.73307 3.84019L8.41906 1.16759Z" fill="#758EFF"/>
</svg>
